<!-- Generated by IcoMoon.io -->
<svg version="1.1" xmlns="http://www.w3.org/2000/svg" width="768" height="768" viewBox="0 0 768 768">
<title></title>
<g id="icomoon-ignore">
</g>
<path fill="#000" d="M726.4 361.6l-192-192c-12.8-12.8-32-12.8-44.8 0s-12.8 32 0 44.8l169.6 169.6-169.6 169.6c-12.8 12.8-12.8 32 0 44.8 6.4 6.4 16 9.6 22.4 9.6s16-3.2 22.4-9.6l192-192c12.8-12.8 12.8-32 0-44.8z"></path>
<path fill="#000" d="M278.4 169.6c-12.8-12.8-32-12.8-44.8 0l-192 192c-12.8 12.8-12.8 32 0 44.8l192 192c6.4 6.4 12.8 9.6 22.4 9.6s16-3.2 22.4-9.6c12.8-12.8 12.8-32 0-44.8l-169.6-169.6 169.6-169.6c12.8-12.8 12.8-32 0-44.8z"></path>
</svg>
